<svg width="30" height="30" viewBox="0 0 30 30" fill="none" xmlns="http://www.w3.org/2000/svg">
<rect width="30" height="30" fill="#8B5CF6"/>
<path d="M12.2808 16.3008V24H8V6H12.1407V12.9785H12.2895C12.593 12.1465 13.0891 11.4961 13.7777 11.0273C14.4722 10.5586 15.3214 10.3242 16.3252 10.3242C17.2706 10.3242 18.0935 10.5352 18.7938 10.957C19.4942 11.373 20.0369 11.9619 20.4221 12.7236C20.8131 13.4854 21.0057 14.376 20.9999 15.3955V24H16.7191V16.2393C16.7249 15.4893 16.5382 14.9033 16.1588 14.4814C15.7795 14.0596 15.2455 13.8486 14.5568 13.8486C14.1075 13.8486 13.7106 13.9482 13.3663 14.1475C13.0278 14.3408 12.7622 14.6191 12.5697 14.9824C12.3829 15.3457 12.2866 15.7852 12.2808 16.3008Z" fill="white"/>
</svg>
